<svg id="Layer_1" data-name="Layer 1" xmlns="http://www.w3.org/2000/svg" xmlns:xlink="http://www.w3.org/1999/xlink" viewBox="0 0 1243.48 591.18"><defs><style>.cls-1{fill:none;}.cls-2{fill:#29abe2;}.cls-3{fill:#fff;}.cls-4{clip-path:url(#clip-path);}.cls-5{clip-path:url(#clip-path-2);}.cls-6{fill:#b11010;}</style><clipPath id="clip-path" transform="translate(-38.35 43.12)"><rect class="cls-1" x="28" y="28" width="543" height="543"/></clipPath><clipPath id="clip-path-2" transform="translate(-38.35 43.12)"><rect class="cls-1" x="-43.28" y="-109.37" width="738.69" height="795.71"/></clipPath><symbol id="Favorites_-_Orange" data-name="Favorites - Orange" viewBox="0 0 34 32.39"><path class="cls-3" d="M24.81,0c.48,0,1,0,1.54.08C29.68.41,33.53,3.46,34,9.3v1.94c-.44,5.59-4.66,12.49-17,21.15C4.66,23.74.44,16.84,0,11.24V9.3C.47,3.46,4.32.41,7.65.08,8.2,0,8.71,0,9.19,0,13,0,14.88,1.66,17,4.18,19.11,1.66,21,0,24.81,0m0,3.72c-2.21,0-3.13.68-5,2.85L17,10,14.15,6.57c-1.83-2.18-2.75-2.85-5-2.85-.36,0-.76,0-1.18.06-1.54.15-3.93,1.79-4.29,5.68v1.63C4.17,16,8.63,21.59,17,27.81,25.36,21.59,29.83,16,30.28,11.09V9.46c-.37-3.89-2.76-5.53-4.3-5.68h0c-.42,0-.82-.06-1.18-.06Z"/></symbol><symbol id="Add_Favorite_2" data-name="Add Favorite 2" viewBox="0 0 81 39.2"><path class="cls-2" d="M81,0"/><use id="Favorites_-_Orange-3" data-name="Favorites - Orange" width="34" height="32.39" transform="translate(0 6.81)" xlink:href="#Favorites_-_Orange"/><polygon class="cls-3" points="27.05 7.73 17.05 12.73 11.05 9.73 6.05 9.73 3.05 11.73 3.05 21.73 16.05 37.73 31.05 21.73 31.05 11.73 27.05 7.73"/></symbol></defs><title>saving_lives</title><g class="cls-4"><g class="cls-5"><use id="Add_Favorite_2-3" data-name="Add Favorite 2" width="81" height="39.2" transform="translate(0 0) scale(15.35 15.08)" xlink:href="#Add_Favorite_2"/><polygon class="cls-6" points="295.49 353.63 257.91 449.53 217.74 224.04 181.45 357.52 10.38 357.52 10.38 368.53 189.87 368.53 214.5 285.59 253.38 492.94 306.51 367.24 355.75 367.24 356.4 353.63 295.49 353.63"/><circle class="cls-6" cx="364.18" cy="360.11" r="14.26"/></g></g></svg>