<svg id="Layer_1" data-name="Layer 1" xmlns="http://www.w3.org/2000/svg" xmlns:xlink="http://www.w3.org/1999/xlink" viewBox="0 0 533.12 464.97"><defs><style>.cls-1{fill:#fff;}</style><symbol id="Comments_-_Grey" data-name="Comments - Grey" viewBox="0 0 34 29.65"><path class="cls-1" d="M17,0c9.39,0,17,6.14,17,13.72a12,12,0,0,1-3.27,8.08l3.16,7.86L20.5,27c-1.4,0-3,.38-4.54.42h-.53C6.33,27.39,0,21.15,0,13.72S7.61,0,17,0m0,3.72c-7.32,0-13.28,4.49-13.28,10,0,5.67,5,10,11.72,10h.43c.63,0,1.32-.1,2-.19s1.63-.2,2.49-.22h.42l.41.08,6.63,1.33-.59-1.46L26.41,21,28,19.3a8.38,8.38,0,0,0,2.3-5.59c0-5.51-6-10-13.28-10Z"/></symbol></defs><title>awareness</title><use id="Comments_-_Grey-3" data-name="Comments - Grey" width="34" height="29.65" transform="translate(0 0) scale(15.68)" xlink:href="#Comments_-_Grey"/></svg>